# This file uses centimeters as units for non-parametric coordinates.

mtllib piedra2_UVS_OK.mtl
g default
v -6.162290 0.914939 7.434124
v 6.827538 0.914939 8.271194
v -4.118283 25.344765 4.530887
v 3.437224 24.557985 3.496859
v -2.840502 26.216265 -5.598758
v 3.936396 24.181927 -4.130121
v -5.925074 0.914939 -9.021722
v 5.299882 0.914939 -7.192866
v 0.051511 16.181561 7.250890
v 0.183410 0.914939 11.099449
v 6.060603 17.859501 5.478365
v 0.056530 26.617739 4.348948
v -5.515682 13.230809 5.997075
v -0.000000 29.619755 -0.934654
v 4.699413 24.637254 -0.546369
v 0.151930 26.822762 -6.072906
v -4.501034 27.430429 -0.959286
v -0.296494 13.143534 -9.281307
v 4.037312 13.691627 -6.740189
v -0.323160 0.914939 -10.281441
v -6.543092 17.743145 -6.029168
v 9.093008 0.914939 -0.526684
v -11.062829 0.914939 -2.131357
v 6.917840 16.133692 -0.455888
v -6.483453 13.109316 -0.366826
v -2.723582 8.125299 9.472553
v -6.020269 8.125299 8.298250
v -2.695520 0.914939 10.285356
v 0.062313 8.125299 9.462741
v -2.517832 14.506592 7.426753
v -2.183256 27.638656 1.883735
v -4.447550 25.259579 1.992937
v -1.951510 25.723606 4.445063
v 0.012927 28.647902 1.827758
v -2.438476 29.288003 -1.137484
v -2.333769 21.750110 -5.663427
v -4.736299 22.149932 -4.554672
v -1.188607 26.364631 -5.929576
v -0.105592 21.327159 -7.111020
v -3.358853 15.519193 -7.707829
v -9.905178 0.914939 -6.821313
v -2.980863 0.914939 -10.515840
v 6.646990 8.125299 2.086820
v 5.664244 8.125299 5.124783
v 8.327559 0.914939 3.723145
v 7.146273 8.125299 -0.657306
v 6.678799 17.457494 2.476136
v -7.643862 8.125299 -4.423205
v -6.842020 7.911763 -8.247460
v -8.279288 8.125299 -0.476104
v -6.449444 16.605492 -3.491092
v 2.818416 8.125299 7.617101
v 3.757278 0.914939 9.955417
v 2.980061 18.450721 5.717136
v 1.820100 22.349828 4.074329
v 4.026139 21.969881 3.819419
v 1.634015 25.222975 3.862607
v -0.139550 23.656775 5.191454
v -2.612340 24.110857 5.812933
v -5.708244 23.453508 3.926959
v 2.108154 26.320638 1.677196
v 3.955341 24.164022 1.332490
v 2.482988 27.709190 -0.750211
v 2.287611 26.673629 -3.080412
v 4.276348 23.917235 -2.148616
v 1.914814 25.618306 -5.215243
v 0.031164 28.617648 -4.179291
v -1.750163 28.169938 -4.338435
v -4.444898 25.844303 -3.623949
v 1.971039 21.497153 -6.238749
v 4.192660 21.726600 -4.676986
v 1.614812 13.201372 -8.495414
v 2.352770 6.037017 -7.887518
v 4.772522 7.509603 -6.319861
v 2.212750 0.914939 -8.543981
v 0.169940 5.361605 -8.810387
v -3.130065 6.301419 -8.723827
v 7.516328 0.914939 -3.738100
v -9.614999 0.914939 3.194180
v 6.075566 7.988623 -3.276600
v 5.426795 14.675872 -3.053926
v 4.428952 21.890506 -2.473623
v 4.779472 21.892462 -0.574505
v 4.325841 21.953067 1.547664
v -7.723223 8.125299 4.209004
v -6.342457 11.790997 3.579215
v -6.561882 23.093824 2.421010
v -5.835939 22.211418 -0.488204
v -5.849519 22.149932 -2.595184
v -5.948254 -1.227457 7.138855
v -2.624802 -1.227457 9.872215
v -5.683152 -1.218035 -9.333407
v -2.887768 -1.215610 -10.838142
v -9.976983 -1.204000 -7.492560
v 5.040063 -1.227457 -6.883445
v 7.164881 -1.227457 -3.571501
v 0.135111 -1.227457 10.652654
v 3.561233 -1.227457 9.555917
v -0.352270 -1.221539 -10.398824
v 2.079408 -1.226654 -8.389587
v 8.676379 -1.227457 -0.492847
v 7.942575 -1.227457 3.581291
v -10.943301 -1.219511 -2.610419
v -9.263457 -1.227457 3.064955
v 6.504566 -1.227457 7.941321
vt 0.581572 0.251443
vt 0.493643 0.220662
vt 0.545592 0.137495
vt 0.628691 0.160932
vt 0.512084 0.554473
vt 0.326849 0.402856
vt 0.414443 0.385565
vt 0.517560 0.458856
vt 0.618751 0.812235
vt 0.192322 0.296796
vt 0.213021 0.349837
vt 0.577460 0.749100
vt 0.773408 0.454969
vt 0.750533 0.392662
vt 0.822226 0.345153
vt 0.858004 0.433156
vt 0.250962 0.277488
vt 0.605917 0.938054
vt 0.206549 0.182448
vt 0.693569 0.192957
vt 0.735358 0.125860
vt 0.816418 0.188449
vt 0.755246 0.257765
vt 0.693635 0.350034
vt 0.707049 0.409123
vt 0.655944 0.379942
vt 0.599489 0.356241
vt 0.592607 0.394607
vt 0.542023 0.379740
vt 0.537815 0.335912
vt 0.579764 0.465670
vt 0.636399 0.404735
vt 0.639862 0.467524
vt 0.645604 0.532063
vt 0.709554 0.523620
vt 0.710973 0.563820
vt 0.650749 0.591809
vt 0.594879 0.631428
vt 0.618181 0.678767
vt 0.585415 0.693781
vt 0.550248 0.650622
vt 0.649838 0.730008
vt 0.657397 0.648120
vt 0.690259 0.686260
vt 0.737903 0.748022
vt 0.775815 0.684488
vt 0.843326 0.689735
vt 0.811963 0.768897
vt 0.774822 0.828166
vt 0.804060 0.877835
vt 0.752655 0.930964
vt 0.697009 0.886791
vt 0.871961 0.513998
vt 0.952293 0.501704
vt 0.939491 0.604563
vt 0.863731 0.595959
vt 0.797127 0.589918
vt 0.724500 0.628122
vt 0.731736 0.573006
vt 0.735059 0.522349
vt 0.696321 0.475256
vt 0.720062 0.467088
vt 0.309824 0.151716
vt 0.252595 0.063165
vt 0.394177 0.057545
vt 0.436108 0.135452
vt 0.422928 0.210250
vt 0.449489 0.324252
vt 0.407997 0.321093
vt 0.333762 0.331571
vt 0.244808 0.390879
vt 0.275031 0.336864
vt 0.537973 0.065348
vt 0.660174 0.093374
vt 0.639189 0.289737
vt 0.486635 0.354511
vt 0.576524 0.542494
vt 0.175806 0.418262
vt 0.703793 0.784790
vt 0.880961 0.257605
vt 0.928178 0.380100
vt 0.794669 0.518920
vt 0.676348 0.974647
vt 0.132539 0.099257
vt 0.322120 0.235592
vt 0.680400 0.421742
vt 0.703100 0.611552
vt 0.902157 0.719593
vt 0.850656 0.804265
vt 0.541973 0.045771
vt 0.667020 0.074641
vt 0.774998 0.951227
vt 0.698166 0.992564
vt 0.104177 0.075666
vt 0.959092 0.608393
vt 0.920802 0.726713
vt 0.745939 0.109022
vt 0.830418 0.174084
vt 0.867345 0.816033
vt 0.821059 0.896060
vt 0.947571 0.374897
vt 0.972064 0.500931
vt 0.234612 0.043935
vt 0.395244 0.037501
vt 0.898100 0.247754
vt 0.043552 0.178894
vt 0.018178 0.166677
vt 0.464322 0.647180
vt 0.539217 0.705015
vt 0.109800 0.211409
vt 0.509072 0.778966
vt 0.530848 0.834084
vt 0.452507 0.442567
vt 0.450539 0.551493
vn -0.417629 0.344070 0.840953
vn -0.417629 0.344070 0.840953
vn -0.417629 0.344070 0.840953
vn -0.417629 0.344070 0.840953
vn -0.609656 0.653107 0.449189
vn -0.609656 0.653107 0.449189
vn -0.609656 0.653107 0.449189
vn -0.609656 0.653107 0.449189
vn -0.271735 0.366674 -0.889781
vn -0.271735 0.366674 -0.889781
vn -0.271735 0.366674 -0.889781
vn -0.271735 0.366674 -0.889781
vn 0.965611 -0.031739 0.258046
vn 0.965611 -0.031739 0.258046
vn 0.965611 -0.031739 0.258046
vn 0.965611 -0.031739 0.258046
vn -0.990600 0.097324 -0.096128
vn -0.990600 0.097324 -0.096128
vn -0.990600 0.097324 -0.096128
vn -0.990600 0.097324 -0.096128
vn 0.411182 0.270198 0.870588
vn 0.411182 0.270198 0.870588
vn 0.411182 0.270198 0.870588
vn 0.411182 0.270198 0.870588
vn 0.162020 0.430625 0.887869
vn 0.162020 0.430625 0.887869
vn 0.162020 0.430625 0.887869
vn 0.162020 0.430625 0.887869
vn 0.103662 0.416973 0.902988
vn 0.103662 0.416973 0.902988
vn 0.103662 0.416973 0.902988
vn 0.103662 0.416973 0.902988
vn 0.672607 0.586474 0.451275
vn 0.672607 0.586474 0.451275
vn 0.672606 0.586474 0.451275
vn 0.672607 0.586474 0.451275
vn 0.790954 0.502710 -0.348818
vn 0.790954 0.502710 -0.348818
vn 0.790954 0.502710 -0.348818
vn 0.790954 0.502710 -0.348818
vn -0.189066 0.664215 -0.723237
vn -0.189066 0.664215 -0.723237
vn -0.189066 0.664216 -0.723237
vn -0.189066 0.664215 -0.723237
vn 0.443832 0.178947 -0.878061
vn 0.443832 0.178947 -0.878061
vn 0.443832 0.178947 -0.878061
vn 0.443832 0.178947 -0.878061
vn 0.566097 -0.001023 -0.824338
vn 0.566097 -0.001023 -0.824338
vn 0.566097 -0.001023 -0.824338
vn 0.566097 -0.001023 -0.824338
vn 0.072699 0.311831 -0.947352
vn 0.072699 0.311831 -0.947352
vn 0.072699 0.311831 -0.947352
vn 0.072699 0.311830 -0.947352
vn 0.886356 0.219643 -0.407591
vn 0.886356 0.219643 -0.407591
vn 0.886356 0.219643 -0.407591
vn 0.886356 0.219643 -0.407591
vn 0.953679 0.101762 -0.283092
vn 0.953679 0.101762 -0.283092
vn 0.953679 0.101762 -0.283092
vn 0.953679 0.101762 -0.283092
vn 0.950621 0.097547 0.294627
vn 0.950621 0.097547 0.294627
vn 0.950621 0.097547 0.294627
vn 0.950621 0.097547 0.294627
vn -0.943849 0.271021 0.188936
vn -0.943849 0.271021 0.188936
vn -0.943849 0.271021 0.188936
vn -0.943849 0.271021 0.188936
vn -0.924900 0.039020 0.378204
vn -0.924900 0.039020 0.378204
vn -0.924900 0.039020 0.378204
vn -0.924900 0.039020 0.378204
vn -0.955474 0.276184 -0.103885
vn -0.955474 0.276184 -0.103886
vn -0.955474 0.276184 -0.103885
vn -0.955474 0.276184 -0.103885
vn -0.511452 0.000983 0.859311
vn -0.511452 0.000983 0.859311
vn -0.511452 0.000983 0.859311
vn -0.511452 0.000983 0.859311
vn -0.138654 0.164450 0.976592
vn -0.138654 0.164450 0.976592
vn -0.138654 0.164450 0.976592
vn -0.138654 0.164450 0.976592
vn -0.055352 0.283112 0.957488
vn -0.055352 0.283112 0.957488
vn -0.055352 0.283112 0.957488
vn -0.055352 0.283112 0.957488
vn -0.485632 0.804443 0.342101
vn -0.485632 0.804443 0.342101
vn -0.485632 0.804443 0.342101
vn -0.485632 0.804443 0.342101
vn -0.314299 0.741589 0.592673
vn -0.314299 0.741589 0.592673
vn -0.314299 0.741589 0.592673
vn -0.314299 0.741589 0.592673
vn -0.265646 0.873409 0.408154
vn -0.265646 0.873409 0.408154
vn -0.265646 0.873409 0.408154
vn -0.265646 0.873409 0.408154
vn -0.335844 -0.024471 -0.941600
vn -0.335844 -0.024471 -0.941600
vn -0.335844 -0.024471 -0.941600
vn -0.335844 -0.024471 -0.941600
vn -0.404989 0.125343 -0.905689
vn -0.404989 0.125343 -0.905689
vn -0.404989 0.125343 -0.905689
vn -0.404989 0.125343 -0.905689
vn -0.354357 0.289845 -0.889056
vn -0.354357 0.289845 -0.889056
vn -0.354357 0.289845 -0.889056
vn -0.354357 0.289845 -0.889056
vn 0.912643 0.279043 0.298692
vn 0.912643 0.279043 0.298692
vn 0.912643 0.279043 0.298692
vn 0.912643 0.279043 0.298692
vn 0.950183 0.260057 0.171824
vn 0.950183 0.260057 0.171824
vn 0.950183 0.260057 0.171824
vn 0.950183 0.260057 0.171824
vn 0.991827 0.006906 0.127401
vn 0.991827 0.006906 0.127401
vn 0.991827 0.006906 0.127401
vn 0.991827 0.006906 0.127401
vn -0.762358 0.208908 -0.612509
vn -0.762358 0.208908 -0.612509
vn -0.762358 0.208908 -0.612509
vn -0.762358 0.208908 -0.612509
vn -0.909198 0.371123 -0.188752
vn -0.909198 0.371123 -0.188752
vn -0.909198 0.371123 -0.188752
vn -0.909198 0.371123 -0.188752
vn -0.976348 0.215735 0.014233
vn -0.976348 0.215735 0.014233
vn -0.976348 0.215735 0.014233
vn -0.976348 0.215735 0.014233
vn 0.536438 0.367203 0.759866
vn 0.536438 0.367203 0.759866
vn 0.536438 0.367203 0.759866
vn 0.536438 0.367203 0.759866
vn 0.422593 0.057969 0.904464
vn 0.422593 0.057969 0.904464
vn 0.422593 0.057969 0.904464
vn 0.422593 0.057969 0.904464
vn 0.443666 0.192166 0.875347
vn 0.443666 0.192166 0.875347
vn 0.443666 0.192166 0.875347
vn 0.443666 0.192166 0.875347
vn 0.182671 0.121372 0.975654
vn 0.182671 0.121372 0.975654
vn 0.182671 0.121372 0.975654
vn 0.182671 0.121372 0.975654
vn 0.502535 0.152903 0.850929
vn 0.502535 0.152903 0.850929
vn 0.502535 0.152903 0.850929
vn 0.502535 0.152903 0.850929
vn 0.400191 0.326279 0.856382
vn 0.400191 0.326279 0.856382
vn 0.400191 0.326279 0.856382
vn 0.400191 0.326279 0.856382
vn -0.366591 0.416825 0.831786
vn -0.366591 0.416825 0.831786
vn -0.366591 0.416825 0.831786
vn -0.366591 0.416825 0.831786
vn -0.508847 0.150132 0.847665
vn -0.508847 0.150132 0.847665
vn -0.508847 0.150132 0.847665
vn -0.508847 0.150132 0.847665
vn 0.102688 0.210790 0.972123
vn 0.102688 0.210790 0.972123
vn 0.102688 0.210790 0.972123
vn 0.102688 0.210790 0.972123
vn 0.621638 0.738447 0.261271
vn 0.621638 0.738447 0.261271
vn 0.621638 0.738447 0.261271
vn 0.621638 0.738447 0.261271
vn 0.720464 0.548510 0.424344
vn 0.720464 0.548510 0.424344
vn 0.720464 0.548510 0.424344
vn 0.720464 0.548510 0.424344
vn 0.633222 0.686933 0.356584
vn 0.633222 0.686934 0.356584
vn 0.633222 0.686934 0.356584
vn 0.633222 0.686934 0.356584
vn 0.756869 0.604992 -0.247255
vn 0.756869 0.604992 -0.247255
vn 0.756869 0.604992 -0.247255
vn 0.756869 0.604992 -0.247255
vn 0.675870 0.581061 -0.453397
vn 0.675870 0.581061 -0.453397
vn 0.675870 0.581061 -0.453397
vn 0.675870 0.581061 -0.453397
vn 0.650291 0.707140 -0.277623
vn 0.650291 0.707140 -0.277623
vn 0.650291 0.707140 -0.277623
vn 0.650291 0.707140 -0.277623
vn -0.506003 0.648940 -0.568189
vn -0.506003 0.648940 -0.568189
vn -0.506003 0.648940 -0.568189
vn -0.506003 0.648940 -0.568189
vn -0.649151 0.656108 -0.384870
vn -0.649151 0.656108 -0.384870
vn -0.649151 0.656108 -0.384870
vn -0.649151 0.656108 -0.384870
vn -0.144937 0.934984 -0.323726
vn -0.144937 0.934984 -0.323726
vn -0.144937 0.934984 -0.323726
vn -0.144937 0.934984 -0.323726
vn 0.560378 0.217460 -0.799180
vn 0.560378 0.217460 -0.799180
vn 0.560378 0.217460 -0.799180
vn 0.560378 0.217460 -0.799180
vn 0.549295 0.197569 -0.811937
vn 0.549295 0.197569 -0.811937
vn 0.549295 0.197569 -0.811937
vn 0.549295 0.197569 -0.811937
vn 0.362325 0.230571 -0.903083
vn 0.362325 0.230571 -0.903083
vn 0.362325 0.230571 -0.903083
vn 0.362325 0.230571 -0.903083
vn 0.436803 0.130621 -0.890023
vn 0.436803 0.130621 -0.890023
vn 0.436803 0.130621 -0.890023
vn 0.436803 0.130621 -0.890023
vn 0.466849 0.162391 -0.869299
vn 0.466849 0.162391 -0.869299
vn 0.466849 0.162391 -0.869299
vn 0.466849 0.162391 -0.869299
vn 0.390258 -0.034961 -0.920042
vn 0.390258 -0.034961 -0.920042
vn 0.390258 -0.034961 -0.920042
vn 0.390258 -0.034961 -0.920042
vn -0.239716 0.177177 -0.954539
vn -0.239716 0.177177 -0.954539
vn -0.239716 0.177177 -0.954539
vn -0.239716 0.177177 -0.954539
vn -0.209775 0.164417 -0.963826
vn -0.209775 0.164417 -0.963826
vn -0.209775 0.164417 -0.963826
vn -0.209775 0.164417 -0.963826
vn -0.242047 0.021204 -0.970033
vn -0.242047 0.021204 -0.970033
vn -0.242047 0.021204 -0.970033
vn -0.242047 0.021204 -0.970033
vn 0.861069 0.170750 -0.478963
vn 0.861069 0.170750 -0.478963
vn 0.861069 0.170750 -0.478963
vn 0.861068 0.170750 -0.478963
vn 0.917329 0.092704 -0.387187
vn 0.917329 0.092704 -0.387187
vn 0.917329 0.092704 -0.387187
vn 0.917329 0.092704 -0.387187
vn 0.887523 0.066137 -0.455993
vn 0.887523 0.066137 -0.455993
vn 0.887523 0.066137 -0.455993
vn 0.887523 0.066137 -0.455993
vn 0.984381 0.115624 -0.132762
vn 0.984381 0.115624 -0.132762
vn 0.984381 0.115624 -0.132762
vn 0.984381 0.115624 -0.132762
vn 0.971563 0.064241 -0.227902
vn 0.971563 0.064241 -0.227902
vn 0.971563 0.064241 -0.227902
vn 0.971563 0.064241 -0.227902
vn 0.873388 0.226478 -0.431163
vn 0.873388 0.226478 -0.431163
vn 0.873388 0.226478 -0.431163
vn 0.873388 0.226478 -0.431163
vn 0.964665 0.210595 0.158339
vn 0.964665 0.210595 0.158339
vn 0.964665 0.210595 0.158339
vn 0.964665 0.210595 0.158339
vn 0.870900 0.478151 0.113602
vn 0.870900 0.478151 0.113602
vn 0.870900 0.478151 0.113602
vn 0.870900 0.478151 0.113602
vn 0.915314 0.402454 0.015206
vn 0.915314 0.402454 0.015206
vn 0.915314 0.402454 0.015206
vn 0.915314 0.402454 0.015206
vn -0.849170 0.051275 0.525625
vn -0.849170 0.051275 0.525625
vn -0.849170 0.051275 0.525625
vn -0.849170 0.051275 0.525625
vn -0.911332 0.292641 0.289541
vn -0.911332 0.292641 0.289541
vn -0.911332 0.292641 0.289541
vn -0.911332 0.292641 0.289541
vn -0.928427 0.348681 0.128238
vn -0.928427 0.348681 0.128238
vn -0.928427 0.348681 0.128238
vn -0.928427 0.348681 0.128238
vn -0.734081 0.664119 0.141670
vn -0.734081 0.664119 0.141670
vn -0.734081 0.664119 0.141670
vn -0.734081 0.664119 0.141670
vn -0.906508 0.422040 -0.011228
vn -0.906508 0.422040 -0.011228
vn -0.906508 0.422040 -0.011228
vn -0.906508 0.422040 -0.011228
vn -0.996341 0.015634 -0.084022
vn -0.996341 0.015634 -0.084022
vn -0.996341 0.015634 -0.084022
vn -0.996341 0.015634 -0.084022
vn -0.814751 0.201255 -0.543762
vn -0.814751 0.201255 -0.543762
vn -0.814751 0.201255 -0.543762
vn -0.814751 0.201255 -0.543762
vn -0.952496 0.265782 -0.148696
vn -0.952496 0.265782 -0.148696
vn -0.952496 0.265782 -0.148696
vn -0.952496 0.265782 -0.148696
vn -0.995365 0.082129 0.050036
vn -0.995365 0.082129 0.050036
vn -0.995365 0.082129 0.050036
vn -0.995365 0.082129 0.050036
vn -0.626234 -0.167505 0.761429
vn -0.626234 -0.167505 0.761429
vn -0.626234 -0.167505 0.761429
vn -0.626234 -0.167505 0.761429
vn -0.461024 0.094971 -0.882291
vn -0.461024 0.094971 -0.882291
vn -0.461024 0.094971 -0.882291
vn -0.461024 0.094971 -0.882291
vn -0.430894 0.186851 -0.882846
vn -0.430894 0.186851 -0.882846
vn -0.430894 0.186851 -0.882846
vn -0.430894 0.186851 -0.882846
vn 0.828353 -0.177213 -0.531439
vn 0.828353 -0.177213 -0.531439
vn 0.828353 -0.177213 -0.531439
vn 0.828353 -0.177213 -0.531439
vn 0.298631 -0.201288 0.932900
vn 0.298631 -0.201288 0.932900
vn 0.298631 -0.201288 0.932900
vn 0.298631 -0.201288 0.932900
vn 0.601873 -0.029759 -0.798037
vn 0.601873 -0.029759 -0.798037
vn 0.601873 -0.029759 -0.798037
vn 0.601873 -0.029759 -0.798037
vn 0.967116 -0.185323 0.174190
vn 0.967116 -0.185323 0.174190
vn 0.967116 -0.185323 0.174190
vn 0.967116 -0.185323 0.174190
vn -0.951975 -0.143335 0.270553
vn -0.951975 -0.143335 0.270553
vn -0.951975 -0.143335 0.270553
vn -0.951975 -0.143335 0.270553
vn -0.267099 -0.190965 0.944558
vn -0.267099 -0.190966 0.944558
vn -0.267099 -0.190965 0.944558
vn -0.267099 -0.190965 0.944558
vn -0.975167 0.047557 -0.216304
vn -0.975167 0.047557 -0.216304
vn -0.975167 0.047557 -0.216304
vn -0.975167 0.047557 -0.216304
vn 0.128077 0.103556 -0.986343
vn 0.128077 0.103556 -0.986343
vn 0.128077 0.103556 -0.986343
vn 0.128077 0.103556 -0.986343
vn 0.932750 -0.187983 0.307636
vn 0.932750 -0.187983 0.307636
vn 0.932750 -0.187983 0.307636
vn 0.932750 -0.187983 0.307636
vn 0.470918 -0.203173 0.858462
vn 0.470918 -0.203173 0.858462
vn 0.470918 -0.203173 0.858462
vn 0.470918 -0.203173 0.858462
vn 0.423199 -0.135824 -0.895798
vn 0.423199 -0.135824 -0.895798
vn 0.423199 -0.135824 -0.895798
vn 0.423199 -0.135824 -0.895798
vn 0.883216 -0.178606 -0.433624
vn 0.883216 -0.178606 -0.433624
vn 0.883216 -0.178606 -0.433624
vn 0.883216 -0.178606 -0.433624
vn -0.765189 -0.162714 0.622905
vn -0.765189 -0.162714 0.622905
vn -0.765189 -0.162714 0.622905
vn -0.765189 -0.162714 0.622905
s off
g pedra_mediana
usemtl initialShadingGroup
f 30/1/1 13/2/2 27/3/3 26/4/4
f 35/5/5 17/114/6 32/113/7 31/8/8
f 40/9/9 21/112/10 37/111/11 36/12/12
f 47/13/13 11/14/14 44/15/15 43/16/16
f 51/17/17 21/10/18 49/110/19 48/19/20
f 29/20/21 10/21/22 53/22/23 52/23/24
f 54/24/25 11/14/26 56/25/27 55/26/28
f 58/27/29 12/28/30 33/29/31 59/30/32
f 34/31/33 12/28/34 57/32/35 61/33/36
f 63/34/37 15/35/38 65/36/39 64/37/40
f 67/38/41 16/39/42 38/40/43 68/41/44
f 39/42/45 16/39/46 66/43/47 70/44/48
f 72/45/49 19/46/50 74/47/51 73/48/52
f 76/49/53 20/50/54 42/51/55 77/52/56
f 46/53/57 22/54/58 78/55/59 80/56/60
f 81/57/61 19/46/62 71/58/63 82/59/64
f 83/60/65 15/35/66 62/61/67 84/62/68
f 50/63/69 23/64/70 79/65/71 85/66/72
f 86/67/73 13/2/74 60/68/75 87/69/76
f 88/70/77 17/6/78 69/71/79 89/72/80
f 27/3/81 1/73/82 28/74/83 26/4/84
f 28/74/85 10/21/86 29/20/87 26/4/88
f 29/20/89 9/75/90 30/1/91 26/4/92
f 32/113/93 3/76/94 33/29/95 31/8/96
f 33/29/97 12/28/98 34/31/99 31/8/100
f 34/31/101 14/77/102 35/5/103 31/8/104
f 37/111/105 5/109/106 38/40/107 36/12/108
f 38/40/109 16/39/110 39/42/111 36/12/112
f 39/42/113 18/79/114 40/9/115 36/12/116
f 44/15/117 2/80/118 45/81/119 43/16/120
f 45/81/121 22/54/122 46/53/123 43/16/124
f 46/53/125 24/82/126 47/13/127 43/16/128
f 49/110/129 7/106/130 41/84/131 48/19/132
f 41/84/133 23/64/134 50/63/135 48/19/136
f 50/63/137 25/85/138 51/17/139 48/19/140
f 53/22/141 2/80/142 44/15/143 52/23/144
f 44/15/145 11/14/146 54/24/147 52/23/148
f 54/24/149 9/75/150 29/20/151 52/23/152
f 56/25/153 4/86/154 57/32/155 55/26/156
f 57/32/157 12/28/158 58/27/159 55/26/160
f 58/27/161 9/75/162 54/24/163 55/26/164
f 33/29/165 3/76/166 60/68/167 59/30/168
f 60/68/169 13/2/170 30/1/171 59/30/172
f 30/1/173 9/75/174 58/27/175 59/30/176
f 57/32/177 4/86/178 62/61/179 61/33/180
f 62/61/181 15/35/182 63/34/183 61/33/184
f 63/34/185 14/77/186 34/31/187 61/33/188
f 65/36/189 6/87/190 66/43/191 64/37/192
f 66/43/193 16/39/194 67/38/195 64/37/196
f 67/38/197 14/77/198 63/34/199 64/37/200
f 38/40/201 5/109/202 69/108/203 68/41/204
f 69/108/205 17/114/206 35/5/207 68/41/208
f 35/5/209 14/77/210 67/38/211 68/41/212
f 66/43/213 6/87/214 71/58/215 70/44/216
f 71/58/217 19/46/218 72/45/219 70/44/220
f 72/45/221 18/79/222 39/42/223 70/44/224
f 74/47/225 8/88/226 75/89/227 73/48/228
f 75/89/229 20/50/230 76/49/231 73/48/232
f 76/49/233 18/79/234 72/45/235 73/48/236
f 42/51/237 7/83/238 49/18/239 77/52/240
f 49/18/241 21/112/242 40/9/243 77/52/244
f 40/9/245 18/79/246 76/49/247 77/52/248
f 78/55/249 8/88/250 74/47/251 80/56/252
f 74/47/253 19/46/254 81/57/255 80/56/256
f 81/57/257 24/82/258 46/53/259 80/56/260
f 71/58/261 6/87/262 65/36/263 82/59/264
f 65/36/265 15/35/266 83/60/267 82/59/268
f 83/60/269 24/82/270 81/57/271 82/59/272
f 62/61/273 4/86/274 56/25/275 84/62/276
f 56/25/277 11/14/278 47/13/279 84/62/280
f 47/13/281 24/82/282 83/60/283 84/62/284
f 79/65/285 1/73/286 27/3/287 85/66/288
f 27/3/289 13/2/290 86/67/291 85/66/292
f 86/67/293 25/85/294 50/63/295 85/66/296
f 60/68/297 3/76/298 32/7/299 87/69/300
f 32/7/301 17/6/302 88/70/303 87/69/304
f 88/70/305 25/85/306 86/67/307 87/69/308
f 69/71/309 5/78/310 37/11/311 89/72/312
f 37/11/313 21/10/314 51/17/315 89/72/316
f 51/17/317 25/85/318 88/70/319 89/72/320
f 28/74/321 1/73/322 90/90/323 91/91/324
f 7/83/325 42/51/326 93/92/327 92/93/328
f 41/84/329 7/106/330 92/107/331 94/94/332
f 8/88/333 78/55/334 96/95/335 95/96/336
f 53/22/337 10/21/338 97/97/339 98/98/340
f 20/50/341 75/89/342 100/99/343 99/100/344
f 22/54/345 45/81/346 102/101/347 101/102/348
f 79/65/349 23/64/350 103/103/351 104/104/352
f 10/21/353 28/74/354 91/91/355 97/97/356
f 23/64/357 41/84/358 94/94/359 103/103/360
f 42/51/361 20/50/362 99/100/363 93/92/364
f 45/81/365 2/80/366 105/105/367 102/101/368
f 2/80/369 53/22/370 98/98/371 105/105/372
f 75/89/373 8/88/374 95/96/375 100/99/376
f 78/55/377 22/54/378 101/102/379 96/95/380
f 1/73/381 79/65/382 104/104/383 90/90/384
