# This file uses centimeters as units for non-parametric coordinates.

mtllib piedra1_UVS_OK.mtl
g default
v -8.810821 0.001246 2.379093
v -2.170744 0.001909 2.197238
v -7.847156 8.690939 1.168536
v -4.055187 6.914226 1.930863
v -7.918908 9.377373 -1.682529
v -4.535958 6.271533 -1.216867
v -8.394924 0.211266 -1.997292
v -3.174241 -0.165895 -2.392837
v -5.255999 4.353985 2.749080
v -5.718144 0.001909 3.416089
v -2.955756 3.970463 2.363770
v -5.803173 7.751259 1.504994
v -7.500813 4.617517 1.402404
v -6.498130 7.602800 -0.311392
v -4.323069 5.986007 0.540224
v -6.715308 7.872398 -1.800688
v -8.426250 9.104139 -0.510186
v -5.965576 4.539368 -2.965002
v -3.694052 3.367023 -1.981806
v -6.535709 -0.029727 -3.097315
v -7.914903 4.799643 -2.352711
v -1.316631 -0.044441 -0.091409
v -9.064371 0.032212 0.205669
v -3.037476 3.051217 0.318465
v -7.978062 4.719858 -0.562347
v -6.734549 2.303296 2.303746
v -7.928954 2.307658 1.473103
v -7.439069 0.001909 3.012079
v -5.526914 2.195454 3.011784
v -6.283776 4.516531 2.051280
v -7.103741 8.227201 0.235271
v -8.209729 8.554850 0.262572
v -6.693600 8.207197 1.218834
v -6.135828 7.673533 0.473382
v -7.385096 8.614188 -0.510203
v -7.323945 6.938790 -2.737338
v -8.487432 7.137850 -2.131447
v -7.490085 8.860529 -1.965383
v -6.331316 6.321446 -2.644614
v -6.905508 4.727335 -3.030699
v -8.787130 0.136901 -0.775466
v -7.465001 0.086065 -2.777572
v -2.320785 1.513848 1.226260
v -2.675003 1.969454 2.209997
v -1.352712 0.001909 1.156363
v -2.265239 1.475493 0.112272
v -2.895351 3.232739 1.429294
v -8.227033 2.391848 -1.335384
v -8.075792 2.403674 -2.314278
v -8.229540 2.354069 -0.466019
v -8.014978 4.770507 -1.400924
v -3.992445 2.006774 2.928626
v -3.743870 0.001909 3.056603
v -4.098024 4.144179 2.903334
v -4.561462 5.553715 2.548926
v -3.509922 5.591173 2.144542
v -5.075551 6.928907 1.834645
v -5.516016 5.749494 2.380510
v -6.562623 6.108526 1.912747
v -7.627984 6.526853 1.419188
v -5.330846 6.568858 0.918999
v -4.181074 6.355007 1.218003
v -5.595946 6.344268 0.136579
v -5.774388 6.351595 -0.619873
v -4.450249 5.906717 -0.244816
v -5.773163 6.833138 -2.016556
v -6.728415 7.638931 -1.009658
v -7.508978 8.685041 -1.178302
v -8.175233 9.329813 -1.272791
v -5.309220 5.503861 -2.357431
v -4.083358 4.953618 -1.541901
v -4.935022 4.226943 -2.765278
v -5.112885 2.178981 -3.086872
v -3.418378 2.028626 -2.162558
v -5.139025 -0.082794 -3.192985
v -6.262161 2.271717 -3.279271
v -7.131040 2.319309 -3.202947
v -2.146473 -0.153923 -1.304137
v -9.054023 0.003924 1.207942
v -2.803957 1.502072 -1.057895
v -3.426022 3.170583 -0.844745
v -3.744244 4.862350 -0.488738
v -3.479859 5.069637 0.412233
v -3.346159 5.319872 1.297185
v -8.108263 2.320847 0.422238
v -7.766758 4.644777 0.303302
v -8.127209 6.540637 0.370963
v -8.506429 6.715504 -0.495952
v -8.634413 6.977624 -1.278652
v -8.810821 -0.539503 2.379093
v -7.439069 -0.538840 3.012079
v -8.394924 -0.329483 -1.997292
v -7.465001 -0.454683 -2.777572
v -8.787130 -0.403849 -0.775466
v -3.174241 -0.706644 -2.392837
v -2.146473 -0.694672 -1.304137
v -5.718144 -0.538840 3.416089
v -3.743870 -0.538840 3.056603
v -6.535709 -0.570476 -3.097315
v -5.139025 -0.623543 -3.192985
v -1.316631 -0.585191 -0.091409
v -1.352712 -0.538840 1.156363
v -9.064371 -0.508537 0.205669
v -9.054023 -0.536826 1.207942
v -2.170744 -0.538840 2.197238
vt 0.246889 0.404073
vt 0.768465 0.901059
vt 0.852011 0.897310
vt 0.171155 0.370361
vt 0.488781 0.594267
vt 0.603622 0.752443
vt 0.626834 0.813212
vt 0.433683 0.559334
vt 0.739614 0.536913
vt 0.752326 0.618959
vt 0.675736 0.651556
vt 0.676922 0.578946
vt 0.449615 0.216248
vt 0.385135 0.230122
vt 0.392651 0.168432
vt 0.473181 0.154427
vt 0.760842 0.690658
vt 0.832380 0.610635
vt 0.841187 0.685177
vt 0.218266 0.284379
vt 0.161101 0.231303
vt 0.275334 0.145351
vt 0.293555 0.209940
vt 0.319519 0.269636
vt 0.387400 0.287607
vt 0.331614 0.324731
vt 0.306113 0.376714
vt 0.368186 0.447032
vt 0.363536 0.509281
vt 0.288141 0.449608
vt 0.432854 0.491700
vt 0.367534 0.390136
vt 0.427955 0.422026
vt 0.477235 0.449032
vt 0.474705 0.363303
vt 0.524407 0.380915
vt 0.524722 0.471711
vt 0.536519 0.548595
vt 0.595482 0.557648
vt 0.601296 0.616513
vt 0.541068 0.611858
vt 0.672555 0.519589
vt 0.622167 0.491948
vt 0.664527 0.451281
vt 0.707282 0.417169
vt 0.672498 0.324904
vt 0.704629 0.288929
vt 0.774319 0.399020
vt 0.801427 0.469442
vt 0.877719 0.460871
vt 0.893931 0.532288
vt 0.816164 0.523082
vt 0.557698 0.171825
vt 0.588771 0.098553
vt 0.678299 0.160087
vt 0.640015 0.220914
vt 0.602567 0.280462
vt 0.622217 0.364884
vt 0.557468 0.327737
vt 0.500085 0.304028
vt 0.431777 0.349646
vt 0.443702 0.288517
vt 0.846084 0.750868
vt 0.944453 0.789030
vt 0.953789 0.861567
vt 0.848551 0.818345
vt 0.766182 0.818208
vt 0.702639 0.903109
vt 0.696522 0.820800
vt 0.685894 0.757061
vt 0.591175 0.689503
vt 0.675370 0.704852
vt 0.958140 0.948738
vt 0.081323 0.318738
vt 0.278087 0.327439
vt 0.627450 0.884289
vt 0.486203 0.526047
vt 0.585317 0.652087
vt 0.724585 0.479744
vt 0.400204 0.097197
vt 0.497101 0.079633
vt 0.527057 0.236958
vt 0.908453 0.621575
vt 0.926936 0.716663
vt 0.763353 0.752715
vt 0.389234 0.335484
vt 0.584695 0.405561
vt 0.758390 0.237674
vt 0.841186 0.366063
vt 0.976020 0.947657
vt 0.068532 0.306320
vt 0.910873 0.526561
vt 0.925742 0.616977
vt 0.944404 0.712747
vt 0.689725 0.146408
vt 0.771924 0.226358
vt 0.150250 0.217259
vt 0.267334 0.129607
vt 0.856463 0.357061
vt 0.894130 0.453886
vt 0.497463 0.061766
vt 0.595963 0.082570
vt 0.962012 0.786060
vt 0.971461 0.859904
vt 0.395410 0.080086
vt 0.018458 0.396737
vt 0.004945 0.384952
vt 0.545358 0.660847
vt 0.275414 0.528356
vt 0.346121 0.584641
vt 0.415657 0.630290
vt 0.478257 0.663007
vt 0.123612 0.458392
vt 0.209004 0.487793
vn -0.511171 0.159668 0.844518
vn -0.511171 0.159668 0.844518
vn -0.511171 0.159668 0.844518
vn -0.511171 0.159668 0.844518
vn 0.328303 0.848293 0.415471
vn 0.328303 0.848293 0.415471
vn 0.328303 0.848293 0.415472
vn 0.328303 0.848293 0.415471
vn -0.509927 -0.013779 -0.860107
vn -0.509927 -0.013779 -0.860107
vn -0.509927 -0.013779 -0.860107
vn -0.509927 -0.013779 -0.860107
vn 0.973336 0.216541 0.075676
vn 0.973336 0.216541 0.075676
vn 0.973336 0.216541 0.075676
vn 0.973336 0.216541 0.075676
vn -0.989080 0.074487 -0.127168
vn -0.989080 0.074487 -0.127168
vn -0.989080 0.074487 -0.127168
vn -0.989080 0.074487 -0.127168
vn 0.130849 0.126452 0.983305
vn 0.130849 0.126452 0.983305
vn 0.130849 0.126452 0.983305
vn 0.130849 0.126452 0.983305
vn 0.392935 0.296719 0.870379
vn 0.392935 0.296719 0.870379
vn 0.392935 0.296719 0.870379
vn 0.392935 0.296719 0.870379
vn -0.218982 0.329226 0.918508
vn -0.218982 0.329226 0.918508
vn -0.218982 0.329226 0.918508
vn -0.218982 0.329226 0.918508
vn 0.796508 0.492206 -0.351152
vn 0.796508 0.492206 -0.351152
vn 0.796508 0.492206 -0.351152
vn 0.796508 0.492206 -0.351152
vn 0.323124 0.940179 -0.107955
vn 0.323124 0.940179 -0.107955
vn 0.323124 0.940179 -0.107955
vn 0.323124 0.940179 -0.107955
vn 0.768058 0.615950 0.175193
vn 0.768058 0.615950 0.175193
vn 0.768058 0.615950 0.175193
vn 0.768058 0.615950 0.175193
vn 0.453301 0.449968 -0.769446
vn 0.453301 0.449968 -0.769446
vn 0.453301 0.449968 -0.769446
vn 0.453301 0.449968 -0.769446
vn 0.533323 0.139180 -0.834383
vn 0.533323 0.139180 -0.834383
vn 0.533323 0.139180 -0.834383
vn 0.533323 0.139180 -0.834383
vn -0.222687 -0.100044 -0.969743
vn -0.222687 -0.100044 -0.969743
vn -0.222687 -0.100044 -0.969743
vn -0.222687 -0.100044 -0.969743
vn 0.766531 0.452237 -0.455973
vn 0.766531 0.452237 -0.455974
vn 0.766531 0.452237 -0.455973
vn 0.766531 0.452237 -0.455973
vn 0.939293 0.257711 -0.226525
vn 0.939293 0.257711 -0.226525
vn 0.939293 0.257711 -0.226525
vn 0.939293 0.257711 -0.226525
vn 0.701013 0.611968 -0.366165
vn 0.701013 0.611968 -0.366165
vn 0.701013 0.611968 -0.366165
vn 0.701013 0.611968 -0.366165
vn -0.922566 0.378172 0.076537
vn -0.922566 0.378172 0.076537
vn -0.922566 0.378172 0.076537
vn -0.922566 0.378172 0.076537
vn -0.935100 -0.127170 0.330779
vn -0.935100 -0.127170 0.330779
vn -0.935100 -0.127170 0.330779
vn -0.935100 -0.127170 0.330779
vn -0.992662 0.112858 -0.043409
vn -0.992662 0.112858 -0.043409
vn -0.992662 0.112858 -0.043409
vn -0.992662 0.112858 -0.043409
vn -0.447082 0.428925 0.784946
vn -0.447082 0.428925 0.784946
vn -0.447082 0.428925 0.784946
vn -0.447082 0.428925 0.784946
vn -0.330620 0.288328 0.898642
vn -0.330620 0.288328 0.898642
vn -0.330620 0.288328 0.898642
vn -0.330620 0.288328 0.898642
vn -0.507422 0.182991 0.842043
vn -0.507422 0.182991 0.842043
vn -0.507422 0.182991 0.842043
vn -0.507422 0.182991 0.842043
vn 0.333349 0.922834 -0.193017
vn 0.333349 0.922834 -0.193017
vn 0.333349 0.922834 -0.193017
vn 0.333349 0.922834 -0.193017
vn 0.512099 0.832200 -0.212598
vn 0.512099 0.832200 -0.212598
vn 0.512099 0.832200 -0.212598
vn 0.512099 0.832200 -0.212598
vn 0.656709 0.744139 -0.122436
vn 0.656709 0.744139 -0.122436
vn 0.656709 0.744139 -0.122436
vn 0.656709 0.744139 -0.122436
vn -0.361378 0.294503 -0.884688
vn -0.361378 0.294503 -0.884688
vn -0.361378 0.294503 -0.884688
vn -0.361378 0.294503 -0.884688
vn 0.499529 0.429264 -0.752465
vn 0.499529 0.429264 -0.752465
vn 0.499529 0.429264 -0.752465
vn 0.499529 0.429264 -0.752465
vn 0.154500 0.179647 -0.971523
vn 0.154500 0.179647 -0.971523
vn 0.154500 0.179647 -0.971523
vn 0.154500 0.179647 -0.971523
vn 0.843357 0.347120 0.410191
vn 0.843357 0.347120 0.410191
vn 0.843357 0.347120 0.410191
vn 0.843357 0.347120 0.410191
vn 0.845739 0.533422 0.013680
vn 0.845739 0.533422 0.013680
vn 0.845739 0.533422 0.013680
vn 0.845739 0.533422 0.013680
vn 0.919869 0.385208 -0.073866
vn 0.919869 0.385208 -0.073866
vn 0.919869 0.385208 -0.073866
vn 0.919869 0.385208 -0.073866
vn -0.961957 0.144454 -0.231889
vn -0.961957 0.144454 -0.231889
vn -0.961957 0.144454 -0.231889
vn -0.961957 0.144454 -0.231889
vn -0.957941 0.258346 -0.124926
vn -0.957941 0.258346 -0.124926
vn -0.957941 0.258346 -0.124926
vn -0.957941 0.258346 -0.124926
vn -0.994864 0.098055 0.025120
vn -0.994864 0.098055 0.025120
vn -0.994864 0.098055 0.025120
vn -0.994864 0.098055 0.025120
vn 0.477094 0.115686 0.871205
vn 0.477094 0.115686 0.871205
vn 0.477094 0.115686 0.871205
vn 0.477094 0.115686 0.871205
vn 0.456368 0.014983 0.889665
vn 0.456368 0.014983 0.889665
vn 0.456368 0.014983 0.889665
vn 0.456368 0.014983 0.889665
vn -0.016351 0.067506 0.997585
vn -0.016351 0.067506 0.997585
vn -0.016351 0.067506 0.997585
vn -0.016351 0.067506 0.997585
vn 0.132796 0.368560 0.920070
vn 0.132796 0.368560 0.920070
vn 0.132796 0.368560 0.920070
vn 0.132796 0.368560 0.920070
vn -0.011792 0.423617 0.905765
vn -0.011792 0.423617 0.905765
vn -0.011792 0.423617 0.905765
vn -0.011792 0.423617 0.905765
vn -0.105290 0.222647 0.969197
vn -0.105290 0.222647 0.969197
vn -0.105290 0.222647 0.969197
vn -0.105290 0.222647 0.969197
vn -0.155100 0.201559 0.967118
vn -0.155100 0.201559 0.967118
vn -0.155100 0.201559 0.967118
vn -0.155100 0.201559 0.967118
vn -0.451375 -0.021322 0.892080
vn -0.451375 -0.021322 0.892080
vn -0.451375 -0.021322 0.892080
vn -0.451375 -0.021322 0.892080
vn -0.476836 0.062812 0.876745
vn -0.476836 0.062812 0.876745
vn -0.476836 0.062812 0.876745
vn -0.476836 0.062812 0.876745
vn 0.182039 0.837435 -0.515330
vn 0.182039 0.837435 -0.515330
vn 0.182039 0.837435 -0.515330
vn 0.182039 0.837435 -0.515330
vn 0.324113 0.841413 -0.432406
vn 0.324113 0.841413 -0.432406
vn 0.324113 0.841413 -0.432406
vn 0.324113 0.841413 -0.432406
vn 0.807159 0.430245 -0.404209
vn 0.807159 0.430245 -0.404209
vn 0.807159 0.430245 -0.404209
vn 0.807159 0.430245 -0.404209
vn 0.214749 0.922125 0.321820
vn 0.214749 0.922125 0.321820
vn 0.214749 0.922125 0.321820
vn 0.214749 0.922125 0.321820
vn 0.750163 0.627068 0.209859
vn 0.750163 0.627069 0.209859
vn 0.750163 0.627069 0.209859
vn 0.750163 0.627068 0.209859
vn 0.821460 0.528175 -0.215024
vn 0.821460 0.528175 -0.215024
vn 0.821460 0.528175 -0.215024
vn 0.821460 0.528175 -0.215024
vn 0.720291 0.633043 0.283615
vn 0.720291 0.633043 0.283615
vn 0.720291 0.633042 0.283615
vn 0.720291 0.633042 0.283615
vn 0.531969 0.818509 0.216915
vn 0.531969 0.818509 0.216915
vn 0.531969 0.818509 0.216915
vn 0.531969 0.818509 0.216915
vn 0.780856 0.605172 -0.155017
vn 0.780856 0.605172 -0.155017
vn 0.780856 0.605172 -0.155017
vn 0.780856 0.605172 -0.155017
vn 0.621403 0.386578 -0.681481
vn 0.621403 0.386578 -0.681481
vn 0.621403 0.386578 -0.681481
vn 0.621403 0.386578 -0.681481
vn 0.644944 0.369940 -0.668724
vn 0.644943 0.369940 -0.668724
vn 0.644944 0.369940 -0.668724
vn 0.644944 0.369940 -0.668724
vn 0.373089 0.299311 -0.878190
vn 0.373089 0.299311 -0.878190
vn 0.373089 0.299311 -0.878190
vn 0.373089 0.299311 -0.878190
vn 0.429238 0.088846 -0.898811
vn 0.429238 0.088846 -0.898811
vn 0.429238 0.088846 -0.898811
vn 0.429238 0.088846 -0.898811
vn 0.036870 -0.019028 -0.999139
vn 0.036870 -0.019028 -0.999139
vn 0.036870 -0.019028 -0.999139
vn 0.036870 -0.019028 -0.999139
vn 0.197580 0.121598 -0.972716
vn 0.197580 0.121598 -0.972716
vn 0.197580 0.121598 -0.972716
vn 0.197580 0.121598 -0.972716
vn -0.666360 -0.026658 -0.745153
vn -0.666360 -0.026658 -0.745153
vn -0.666360 -0.026658 -0.745153
vn -0.666360 -0.026658 -0.745153
vn -0.620396 0.071658 -0.781008
vn -0.620396 0.071658 -0.781008
vn -0.620396 0.071658 -0.781008
vn -0.620396 0.071658 -0.781008
vn 0.007525 0.102659 -0.994688
vn 0.007525 0.102659 -0.994688
vn 0.007525 0.102659 -0.994688
vn 0.007525 0.102659 -0.994688
vn 0.801822 0.254652 -0.540587
vn 0.801822 0.254652 -0.540587
vn 0.801822 0.254652 -0.540587
vn 0.801822 0.254652 -0.540587
vn 0.915066 0.307401 -0.261072
vn 0.915066 0.307401 -0.261072
vn 0.915066 0.307401 -0.261072
vn 0.915066 0.307401 -0.261072
vn 0.856584 0.408835 -0.314828
vn 0.856584 0.408835 -0.314828
vn 0.856584 0.408835 -0.314828
vn 0.856584 0.408835 -0.314828
vn 0.886590 0.454953 -0.083521
vn 0.886590 0.454953 -0.083521
vn 0.886590 0.454953 -0.083521
vn 0.886590 0.454953 -0.083521
vn 0.728081 0.627577 -0.275763
vn 0.728081 0.627577 -0.275764
vn 0.728081 0.627577 -0.275763
vn 0.728081 0.627577 -0.275763
vn 0.925850 0.226476 -0.302507
vn 0.925850 0.226476 -0.302507
vn 0.925850 0.226476 -0.302507
vn 0.925850 0.226476 -0.302507
vn 0.852153 0.470224 -0.229618
vn 0.852153 0.470224 -0.229618
vn 0.852153 0.470224 -0.229618
vn 0.852153 0.470224 -0.229618
vn 0.965470 0.259278 -0.025362
vn 0.965470 0.259278 -0.025362
vn 0.965470 0.259278 -0.025362
vn 0.965470 0.259278 -0.025362
vn 0.961908 0.207609 -0.177852
vn 0.961908 0.207609 -0.177852
vn 0.961908 0.207609 -0.177852
vn 0.961908 0.207609 -0.177852
vn -0.892757 0.416113 0.172727
vn -0.892757 0.416113 0.172727
vn -0.892757 0.416113 0.172727
vn -0.892757 0.416113 0.172727
vn -0.964583 0.168517 0.202934
vn -0.964583 0.168517 0.202934
vn -0.964583 0.168517 0.202934
vn -0.964583 0.168517 0.202934
vn -0.972401 0.131791 0.192528
vn -0.972401 0.131791 0.192528
vn -0.972401 0.131791 0.192528
vn -0.972401 0.131791 0.192528
vn -0.913810 -0.031185 0.404942
vn -0.913810 -0.031185 0.404942
vn -0.913810 -0.031185 0.404942
vn -0.913810 -0.031185 0.404942
vn -0.938549 0.009110 0.345026
vn -0.938549 0.009110 0.345026
vn -0.938549 0.009110 0.345026
vn -0.938549 0.009110 0.345026
vn -0.932116 -0.222732 0.285569
vn -0.932116 -0.222732 0.285569
vn -0.932116 -0.222732 0.285569
vn -0.932116 -0.222732 0.285569
vn -0.936378 0.235367 -0.260382
vn -0.936378 0.235367 -0.260382
vn -0.936378 0.235367 -0.260382
vn -0.936378 0.235367 -0.260382
vn -0.958237 -0.239473 -0.156316
vn -0.958237 -0.239473 -0.156316
vn -0.958237 -0.239473 -0.156316
vn -0.958237 -0.239473 -0.156316
vn -0.963077 -0.265124 0.046808
vn -0.963077 -0.265124 0.046808
vn -0.963077 -0.265124 0.046808
vn -0.963077 -0.265124 0.046808
vn -0.418987 0.000000 0.907992
vn -0.418987 0.000000 0.907992
vn -0.418987 0.000000 0.907992
vn -0.418987 0.000000 0.907992
vn -0.642779 0.000000 -0.766051
vn -0.642779 0.000000 -0.766051
vn -0.642779 0.000000 -0.766051
vn -0.642779 0.000000 -0.766051
vn -0.952147 0.000000 -0.305639
vn -0.952147 0.000000 -0.305639
vn -0.952147 0.000000 -0.305639
vn -0.952147 0.000000 -0.305639
vn 0.727163 0.000000 -0.686465
vn 0.727163 0.000000 -0.686465
vn 0.727163 0.000000 -0.686465
vn 0.727163 0.000000 -0.686465
vn 0.179140 0.000000 0.983824
vn 0.179140 0.000000 0.983824
vn 0.179140 0.000000 0.983824
vn 0.179140 0.000000 0.983824
vn -0.068338 0.000000 -0.997662
vn -0.068338 0.000000 -0.997662
vn -0.068338 0.000000 -0.997662
vn -0.068338 0.000000 -0.997662
vn 0.999582 0.000000 0.028904
vn 0.999582 0.000000 0.028904
vn 0.999582 0.000000 0.028904
vn 0.999582 0.000000 0.028904
vn -0.999947 0.000000 0.010324
vn -0.999947 0.000000 0.010324
vn -0.999947 0.000000 0.010324
vn -0.999947 0.000000 0.010324
vn -0.228550 0.000000 0.973532
vn -0.228550 0.000000 0.973532
vn -0.228550 0.000000 0.973532
vn -0.228550 0.000000 0.973532
vn -0.962319 0.000000 -0.271923
vn -0.962319 0.000000 -0.271923
vn -0.962319 0.000000 -0.271923
vn -0.962319 0.000000 -0.271923
vn -0.325352 0.000000 -0.945593
vn -0.325352 0.000000 -0.945593
vn -0.325352 0.000000 -0.945593
vn -0.325352 0.000000 -0.945593
vn 0.786244 0.000000 0.617916
vn 0.786244 0.000000 0.617916
vn 0.786244 0.000000 0.617916
vn 0.786244 0.000000 0.617916
vn 0.479409 0.000000 0.877591
vn 0.479409 0.000000 0.877591
vn 0.479409 0.000000 0.877591
vn 0.479409 0.000000 0.877591
vn 0.377168 0.000000 -0.926145
vn 0.377168 0.000000 -0.926145
vn 0.377168 0.000000 -0.926145
vn 0.377168 0.000000 -0.926145
vn 0.825282 0.000000 -0.564721
vn 0.825282 0.000000 -0.564721
vn 0.825282 0.000000 -0.564721
vn 0.825282 0.000000 -0.564721
vn -0.979112 0.000000 0.203322
vn -0.979112 0.000000 0.203322
vn -0.979112 0.000000 0.203322
vn -0.979112 0.000000 0.203322
s off
g piedra_pequeña
usemtl initialShadingGroup
f 30/1/1 13/114/2 27/113/3 26/4/4
f 35/5/5 17/112/6 32/111/7 31/8/8
f 40/9/9 21/10/10 37/11/11 36/12/12
f 47/13/13 11/14/14 44/15/15 43/16/16
f 51/17/17 21/10/18 49/18/19 48/19/20
f 29/20/21 10/21/22 53/22/23 52/23/24
f 54/24/25 11/14/26 56/25/27 55/26/28
f 58/27/29 12/28/30 33/29/31 59/30/32
f 34/31/33 12/28/34 57/32/35 61/33/36
f 63/34/37 15/35/38 65/36/39 64/37/40
f 67/38/41 16/39/42 38/40/43 68/41/44
f 39/42/45 16/39/46 66/43/47 70/44/48
f 72/45/49 19/46/50 74/47/51 73/48/52
f 76/49/53 20/50/54 42/51/55 77/52/56
f 46/53/57 22/54/58 78/55/59 80/56/60
f 81/57/61 19/46/62 71/58/63 82/59/64
f 83/60/65 15/35/66 62/61/67 84/62/68
f 50/63/69 23/64/70 79/65/71 85/66/72
f 86/67/73 13/2/74 60/68/75 87/69/76
f 88/70/77 17/6/78 69/71/79 89/72/80
f 27/113/81 1/106/82 28/74/83 26/4/84
f 28/74/85 10/21/86 29/20/87 26/4/88
f 29/20/89 9/75/90 30/1/91 26/4/92
f 32/111/93 3/110/94 33/29/95 31/8/96
f 33/29/97 12/28/98 34/31/99 31/8/100
f 34/31/101 14/77/102 35/5/103 31/8/104
f 37/11/105 5/78/106 38/40/107 36/12/108
f 38/40/109 16/39/110 39/42/111 36/12/112
f 39/42/113 18/79/114 40/9/115 36/12/116
f 44/15/117 2/80/118 45/81/119 43/16/120
f 45/81/121 22/54/122 46/53/123 43/16/124
f 46/53/125 24/82/126 47/13/127 43/16/128
f 49/18/129 7/83/130 41/84/131 48/19/132
f 41/84/133 23/64/134 50/63/135 48/19/136
f 50/63/137 25/85/138 51/17/139 48/19/140
f 53/22/141 2/80/142 44/15/143 52/23/144
f 44/15/145 11/14/146 54/24/147 52/23/148
f 54/24/149 9/75/150 29/20/151 52/23/152
f 56/25/153 4/86/154 57/32/155 55/26/156
f 57/32/157 12/28/158 58/27/159 55/26/160
f 58/27/161 9/75/162 54/24/163 55/26/164
f 33/29/165 3/110/166 60/109/167 59/30/168
f 60/109/169 13/114/170 30/1/171 59/30/172
f 30/1/173 9/75/174 58/27/175 59/30/176
f 57/32/177 4/86/178 62/61/179 61/33/180
f 62/61/181 15/35/182 63/34/183 61/33/184
f 63/34/185 14/77/186 34/31/187 61/33/188
f 65/36/189 6/87/190 66/43/191 64/37/192
f 66/43/193 16/39/194 67/38/195 64/37/196
f 67/38/197 14/77/198 63/34/199 64/37/200
f 38/40/201 5/78/202 69/108/203 68/41/204
f 69/108/205 17/112/206 35/5/207 68/41/208
f 35/5/209 14/77/210 67/38/211 68/41/212
f 66/43/213 6/87/214 71/58/215 70/44/216
f 71/58/217 19/46/218 72/45/219 70/44/220
f 72/45/221 18/79/222 39/42/223 70/44/224
f 74/47/225 8/88/226 75/89/227 73/48/228
f 75/89/229 20/50/230 76/49/231 73/48/232
f 76/49/233 18/79/234 72/45/235 73/48/236
f 42/51/237 7/83/238 49/18/239 77/52/240
f 49/18/241 21/10/242 40/9/243 77/52/244
f 40/9/245 18/79/246 76/49/247 77/52/248
f 78/55/249 8/88/250 74/47/251 80/56/252
f 74/47/253 19/46/254 81/57/255 80/56/256
f 81/57/257 24/82/258 46/53/259 80/56/260
f 71/58/261 6/87/262 65/36/263 82/59/264
f 65/36/265 15/35/266 83/60/267 82/59/268
f 83/60/269 24/82/270 81/57/271 82/59/272
f 62/61/273 4/86/274 56/25/275 84/62/276
f 56/25/277 11/14/278 47/13/279 84/62/280
f 47/13/281 24/82/282 83/60/283 84/62/284
f 79/65/285 1/73/286 27/3/287 85/66/288
f 27/3/289 13/2/290 86/67/291 85/66/292
f 86/67/293 25/85/294 50/63/295 85/66/296
f 60/68/297 3/76/298 32/7/299 87/69/300
f 32/7/301 17/6/302 88/70/303 87/69/304
f 88/70/305 25/85/306 86/67/307 87/69/308
f 69/71/309 5/78/310 37/11/311 89/72/312
f 37/11/313 21/10/314 51/17/315 89/72/316
f 51/17/317 25/85/318 88/70/319 89/72/320
f 28/74/321 1/106/322 90/107/323 91/91/324
f 7/83/325 42/51/326 93/92/327 92/93/328
f 41/84/329 7/83/330 92/93/331 94/94/332
f 8/88/333 78/55/334 96/95/335 95/96/336
f 53/22/337 10/21/338 97/97/339 98/98/340
f 20/50/341 75/89/342 100/99/343 99/100/344
f 22/54/345 45/81/346 102/101/347 101/102/348
f 79/65/349 23/64/350 103/103/351 104/104/352
f 10/21/353 28/74/354 91/91/355 97/97/356
f 23/64/357 41/84/358 94/94/359 103/103/360
f 42/51/361 20/50/362 99/100/363 93/92/364
f 45/81/365 2/80/366 105/105/367 102/101/368
f 2/80/369 53/22/370 98/98/371 105/105/372
f 75/89/373 8/88/374 95/96/375 100/99/376
f 78/55/377 22/54/378 101/102/379 96/95/380
f 1/73/381 79/65/382 104/104/383 90/90/384
